Exact Audio Copy V0.99 prebeta 5 from 4. May 2009

EAC extraction logfile from 9. November 2009, 12:24

Various / Watergate 04 (Mixed by Sebo K)

Used drive  : HL-DT-STDVDRAM GSA-T20L   Adapter: 0  ID: 0

Read mode               : Secure
Utilize accurate stream : Yes
Defeat audio cache      : Yes
Make use of C2 pointers : No

Read offset correction                      : 667
Overread into Lead-In and Lead-Out          : No
Fill up missing offset samples with silence : Yes
Delete leading and trailing silent blocks   : No
Null samples used in CRC calculations       : Yes
Used interface                              : Native Win32 interface for Win NT & 2000
Gap handling                                : Appended to previous track

Used output format              : User Defined Encoder
Selected bitrate                : 320 kBit/s
Quality                         : High
Add ID3 tag                     : No
Command line compressor         : C:Program FilesExact Audio CopyFlacflac.exe
Additional command line options : -V -8 -T "artist=%a" -T "title=%t" -T "album=%g" -T "date=%y" -T "tracknumber=%n" -T "genre=%m" %s


TOC of the extracted CD

     Track |   Start  |  Length  | Start sector | End sector 
    ---------------------------------------------------------
        1  |  0:00.00 |  3:24.73 |         0    |    15372   
        2  |  3:24.73 |  3:38.41 |     15373    |    31763   
        3  |  7:03.39 |  4:10.54 |     31764    |    50567   
        4  | 11:14.18 |  3:38.40 |     50568    |    66957   
        5  | 14:52.58 |  5:58.05 |     66958    |    93812   
        6  | 20:50.63 |  3:40.36 |     93813    |   110348   
        7  | 24:31.24 |  6:16.44 |    110349    |   138592   
        8  | 30:47.68 |  4:07.62 |    138593    |   157179   
        9  | 34:55.55 |  3:38.38 |    157180    |   173567   
       10  | 38:34.18 |  5:39.39 |    173568    |   199031   
       11  | 44:13.57 |  3:52.14 |    199032    |   216445   
       12  | 48:05.71 |  5:12.15 |    216446    |   239860   
       13  | 53:18.11 |  4:07.59 |    239861    |   258444   
       14  | 57:25.70 |  5:45.65 |    258445    |   284384   
       15  | 63:11.60 |  4:54.19 |    284385    |   306453   


Track  1

     Filename G:MusikkAlbumSebo K - Watergate 04 (2009) [FLAC] 1 - dOP - Intro.wav

     Pre-gap length  0:00:02.00

     Peak level 93.3 %
     Track quality 100.0 %
     Test CRC 4BC46208
     Copy CRC 4BC46208
     Track not present in AccurateRip database
     Copy OK

Track  2

     Filename G:MusikkAlbumSebo K - Watergate 04 (2009) [FLAC] 2 - Rick Wade - Night Station.wav

     Peak level 95.3 %
     Track quality 100.0 %
     Test CRC E2BBF1B1
     Copy CRC E2BBF1B1
     Track not present in AccurateRip database
     Copy OK

Track  3

     Filename G:MusikkAlbumSebo K - Watergate 04 (2009) [FLAC] 3 - Koljah & Oliver Deutschmann - Eaten Back To Life (Exclusive Watergate Edit).wav

     Peak level 94.0 %
     Track quality 99.9 %
     Test CRC 4EF5BF94
     Copy CRC 4EF5BF94
     Track not present in AccurateRip database
     Copy OK

Track  4

     Filename G:MusikkAlbumSebo K - Watergate 04 (2009) [FLAC] 4 - Mood II Swing - Move Me.wav

     Peak level 95.2 %
     Track quality 100.0 %
     Test CRC 4CBC397C
     Copy CRC 4CBC397C
     Track not present in AccurateRip database
     Copy OK

Track  5

     Filename G:MusikkAlbumSebo K - Watergate 04 (2009) [FLAC] 5 - dOP - Cold World.wav

     Peak level 94.5 %
     Track quality 100.0 %
     Test CRC 2B4AE202
     Copy CRC 2B4AE202
     Track not present in AccurateRip database
     Copy OK

Track  6

     Filename G:MusikkAlbumSebo K - Watergate 04 (2009) [FLAC] 6 - Session Victim - Contribute.wav

     Peak level 95.1 %
     Track quality 99.9 %
     Test CRC 947CE108
     Copy CRC 947CE108
     Track not present in AccurateRip database
     Copy OK

Track  7

     Filename G:MusikkAlbumSebo K - Watergate 04 (2009) [FLAC] 7 - Daze Maxim + Patrice Scott - Strange Things + Excursions (Reprise).wav

     Peak level 95.2 %
     Track quality 100.0 %
     Test CRC 6AF778D5
     Copy CRC 6AF778D5
     Track not present in AccurateRip database
     Copy OK

Track  8

     Filename G:MusikkAlbumSebo K - Watergate 04 (2009) [FLAC] 8 - Blagger - Strange Behaviour.wav

     Peak level 95.5 %
     Track quality 100.0 %
     Test CRC 051614CB
     Copy CRC 051614CB
     Track not present in AccurateRip database
     Copy OK

Track  9

     Filename G:MusikkAlbumSebo K - Watergate 04 (2009) [FLAC] 9 - Agnes - Who Cares.wav

     Peak level 93.0 %
     Track quality 99.9 %
     Test CRC 9D505900
     Copy CRC 9D505900
     Track not present in AccurateRip database
     Copy OK

Track 10

     Filename G:MusikkAlbumSebo K - Watergate 04 (2009) [FLAC]10 - Martyn - Elden St (Sebo K Watergate Edit).wav

     Peak level 93.7 %
     Track quality 100.0 %
     Test CRC 00E97D73
     Copy CRC 00E97D73
     Track not present in AccurateRip database
     Copy OK

Track 11

     Filename G:MusikkAlbumSebo K - Watergate 04 (2009) [FLAC]11 - RNDM - Wakefield (Exclusive Watergate Edit).wav

     Peak level 94.5 %
     Track quality 100.0 %
     Test CRC C44FA607
     Copy CRC C44FA607
     Track not present in AccurateRip database
     Copy OK

Track 12

     Filename G:MusikkAlbumSebo K - Watergate 04 (2009) [FLAC]12 - Je Davu - Music Got You Movin (Exclusive Watergate Edit).wav

     Peak level 94.7 %
     Track quality 100.0 %
     Test CRC 185B23F1
     Copy CRC 185B23F1
     Track not present in AccurateRip database
     Copy OK

Track 13

     Filename G:MusikkAlbumSebo K - Watergate 04 (2009) [FLAC]13 - Guillaume & The Coutu Du Monts - The Pussy Shepherd.wav

     Peak level 93.6 %
     Track quality 100.0 %
     Test CRC 5E8009FD
     Copy CRC 5E8009FD
     Track not present in AccurateRip database
     Copy OK

Track 14

     Filename G:MusikkAlbumSebo K - Watergate 04 (2009) [FLAC]14 - Sid Le Rock - Naked (DJ Koze Remix).wav

     Peak level 95.3 %
     Track quality 100.0 %
     Test CRC 89475950
     Copy CRC 89475950
     Track not present in AccurateRip database
     Copy OK

Track 15

     Filename G:MusikkAlbumSebo K - Watergate 04 (2009) [FLAC]15 - Nina Kraviz - Voices.wav

     Peak level 93.9 %
     Track quality 100.0 %
     Test CRC 42822E63
     Copy CRC 42822E63
     Track not present in AccurateRip database
     Copy OK


None of the tracks are present in the AccurateRip database

No errors occurred

End of status report
